<?xml version="1.0" encoding="utf-8"?>
<!-- Generator: Adobe Illustrator 19.0.0, SVG Export Plug-In . SVG Version: 6.00 Build 0)  -->
<svg version="1.0" id="Layer_1" xmlns="http://www.w3.org/2000/svg" xmlns:xlink="http://www.w3.org/1999/xlink" x="0px" y="0px"
	 viewBox="0 0 75 112.5" style="enable-background:new 0 0 75 112.5;" xml:space="preserve">
<style type="text/css">
	.st0{fill:#272425;}
</style>
<g>
	<g>
		<path class="st0" d="M49.5,54.5c0,2-1.6,3.5-3.5,3.5H35.1c-2,0-3.5-1.6-3.5-3.5V33.6c0-2,1.6-3.5,3.5-3.5H46c2,0,3.5,1.6,3.5,3.5
			V54.5z"/>
	</g>
	<g>
		<path class="st0" d="M49.5,54.5c0,2-1.6,3.5-3.5,3.5H35.1c-2,0-3.5-1.6-3.5-3.5V33.6c0-2,1.6-3.5,3.5-3.5H46c2,0,3.5,1.6,3.5,3.5
			V54.5z"/>
	</g>
</g>
</svg>
